<svg xmlns="http://www.w3.org/2000/svg" viewBox="0 0 97.99 61.6"><defs><style>.cls-1{fill:#52a4bb;}.cls-2{fill:#fff;}</style></defs><g id="Capa_2" data-name="Capa 2"><g id="Capa_1-2" data-name="Capa 1"><path class="cls-1" d="M0,15.48c0-1.11.67-1.63,1.7-1.19L34.62,27.83H57.7a1.33,1.33,0,0,1,1.48,1.48v7.1a1.33,1.33,0,0,1-1.48,1.48H34.62L1.7,51.43c-1,.44-1.7-.07-1.7-1.18v-7.4a1.61,1.61,0,0,1,1.18-1.7l21.24-8.29L1.18,24.58A1.62,1.62,0,0,1,0,22.87Z"/><path class="cls-2" d="M65.65,11.09C65.65,3.85,69.5,0,76.74,0H86.9C94.06,0,98,3.85,98,11.09v8a1.13,1.13,0,0,1-1.23,1.24h-7.7a1.1,1.1,0,0,1-1.23-1.24V13.24a2.77,2.77,0,0,0-3.08-3.08H79.2a2.73,2.73,0,0,0-3.08,3.08V48.35a2.73,2.73,0,0,0,3.08,3.08h5.55a2.73,2.73,0,0,0,3.08-3.08V38h-4a1.11,1.11,0,0,1-1.23-1.24V29.1a1.07,1.07,0,0,1,1.23-1.23H96.76A1.1,1.1,0,0,1,98,29.1V50.51C98,57.75,94.06,61.6,86.9,61.6H76.74c-7.24,0-11.09-3.85-11.09-11.09Z"/></g></g></svg>